<svg width="32" height="33" viewBox="0 0 32 33" fill="none" xmlns="http://www.w3.org/2000/svg">
<path d="M13.8983 10.5489L11.0265 7.64066C10.7599 7.3707 10.3171 7.38141 10.0375 7.66457L8.03777 9.6896C5.50634 12.2531 9.32836 17.1489 12.216 20.0731C15.0864 22.9799 19.9626 26.8923 22.494 24.3288L24.4938 22.3038C24.7734 22.0207 24.7839 21.5723 24.5174 21.3023L21.6455 18.3941C21.3789 18.1242 20.9362 18.1349 20.6565 18.418L18.6568 20.443C18.6568 20.443 17.6933 20.4412 14.7596 17.5219C11.8259 14.6027 11.875 13.5754 11.875 13.5754L13.8747 11.5504C14.1543 11.2672 14.1649 10.8188 13.8983 10.5489Z" stroke="#A90636" stroke-linecap="round" stroke-linejoin="round"/>
</svg>
