<svg width="175" height="37" viewBox="0 0 175 37" fill="none" xmlns="http://www.w3.org/2000/svg">
<mask id="mask0_804_21146" style="mask-type:luminance" maskUnits="userSpaceOnUse" x="33" y="0" width="14" height="9">
<path d="M33.9824 0H46.848V8.32229H33.9824V0Z" fill="white"/>
</mask>
<g mask="url(#mask0_804_21146)">
<path fill-rule="evenodd" clip-rule="evenodd" d="M45.5815 2.07669C45.4475 2.98027 45.3959 3.87631 45.4191 4.75472C45.8367 4.56721 46.2516 4.37592 46.6652 4.18086C46.5544 2.85946 46.5982 1.4701 46.8147 0.00146484C42.8844 3.32006 38.7943 6.19442 34.2661 7.84176C34.3305 7.93363 34.386 8.03053 34.4362 8.13498C37.8562 6.89035 42.6112 4.58357 45.5815 2.07669Z" fill="#008037"/>
</g>
<mask id="mask1_804_21146" style="mask-type:luminance" maskUnits="userSpaceOnUse" x="47" y="8" width="5" height="6">
<path d="M47.8379 8.32227H51.2154V13.7991H47.8379V8.32227Z" fill="white"/>
</mask>
<g mask="url(#mask1_804_21146)">
<path fill-rule="evenodd" clip-rule="evenodd" d="M48.9233 9.72548C48.6166 10.132 48.3319 10.5447 48.0664 10.9651C48.0922 11.8397 48.1837 12.7093 48.337 13.5752C48.9723 11.8133 49.9117 10.069 51.2158 8.34619C50.1823 8.57272 49.1514 8.78162 48.1244 8.96788C48.0973 9.27746 48.0793 9.58705 48.069 9.89537C48.3602 9.84252 48.645 9.78714 48.9233 9.72674V9.72548Z" fill="#008037"/>
</g>
<path fill-rule="evenodd" clip-rule="evenodd" d="M33.9021 8.91626C33.8763 8.79419 33.8415 8.6759 33.7964 8.56263C39.0475 7.91829 44.1479 5.85943 49.1941 3.28711C46.653 9.58326 47.6697 15.1671 50.4467 20.3998L35.643 17.2134C35.7525 16.9629 35.8389 16.6987 35.9072 16.4268L47.9326 18.9224C45.8334 14.9695 45.4249 9.95325 47.3424 5.19621C43.5306 7.1393 37.8684 8.43049 33.9021 8.91752V8.91626Z" fill="#008037"/>
<path fill-rule="evenodd" clip-rule="evenodd" d="M45.1313 8.47428L45.1567 8.32617C45.1478 8.37554 45.1402 8.42491 45.1313 8.47428Z" fill="#008037"/>
<path fill-rule="evenodd" clip-rule="evenodd" d="M45.2192 8.00593C45.2284 7.95782 45.2389 7.90846 45.2481 7.86035C45.2389 7.90972 45.2284 7.95782 45.2192 8.00593Z" fill="#008037"/>
<path fill-rule="evenodd" clip-rule="evenodd" d="M45.249 7.85749C45.2595 7.80939 45.27 7.76002 45.2805 7.71191L45.249 7.85749Z" fill="#008037"/>
<path fill-rule="evenodd" clip-rule="evenodd" d="M45.2832 7.69386C45.2937 7.65082 45.3029 7.60652 45.3134 7.56348C45.3029 7.60778 45.2924 7.65082 45.2832 7.69386Z" fill="#008037"/>
<path fill-rule="evenodd" clip-rule="evenodd" d="M45.3169 7.54532C45.3287 7.49596 45.3392 7.44532 45.351 7.39722C45.3392 7.44659 45.3287 7.49596 45.3169 7.54532Z" fill="#008037"/>
<path fill-rule="evenodd" clip-rule="evenodd" d="M44.5771 4.43864C44.5783 4.66391 44.5848 4.89043 44.5951 5.1157C44.2858 5.2491 43.974 5.37998 43.6609 5.5096C43.6235 5.49324 43.5874 5.47437 43.5526 5.45297C43.4134 5.36991 43.3039 5.25539 43.2279 5.12451C42.3284 5.68327 41.38 6.21687 40.4161 6.71522C39.8504 6.90148 39.2821 7.0764 38.71 7.23749C39.3453 6.93797 39.9728 6.62461 40.5901 6.29993C41.8001 5.66314 42.9869 4.96972 44.117 4.20582L44.5745 3.89624L44.5783 4.43864H44.5771Z" fill="#008037"/>
<path fill-rule="evenodd" clip-rule="evenodd" d="M5.71611 7.07662C5.77668 7.56113 5.81276 8.0469 5.82822 8.53141L6.13749 8.58427C6.13234 8.38291 6.12203 8.18156 6.10914 7.9802C6.28568 7.97391 6.46222 7.92231 6.62201 7.82163C6.77278 7.72725 6.89005 7.60014 6.96865 7.45668L11.636 9.50547L12.8461 9.70809L5.65039 6.54932L5.71611 7.07662Z" fill="#008037"/>
<path fill-rule="evenodd" clip-rule="evenodd" d="M3.2309 8.0972C3.13554 6.46622 2.83787 4.83272 2.38428 3.19922L15.3955 9.02595L15.5501 9.09391C15.3942 9.30659 15.2602 9.53689 15.1391 9.77726L14.7976 9.6275L4.42674 5.0756C4.72184 6.14153 4.89709 7.25276 4.94477 8.38413L3.2309 8.0972Z" fill="#008037"/>
<mask id="mask2_804_21146" style="mask-type:luminance" maskUnits="userSpaceOnUse" x="0" y="14" width="3" height="6">
<path d="M0 14.1213H2.97285V19.5982H0V14.1213Z" fill="white"/>
</mask>
<g mask="url(#mask2_804_21146)">
<path fill-rule="evenodd" clip-rule="evenodd" d="M2.12494 18.0112C2.39942 17.611 2.65199 17.2033 2.88523 16.7905C2.8208 15.9574 2.69451 15.1305 2.50766 14.3113C1.9819 16.0203 1.16492 17.7268 0 19.4295C0.976776 19.1677 1.95098 18.9223 2.9226 18.7008C2.93291 18.4026 2.93677 18.1068 2.93291 17.8124C2.65714 17.874 2.38782 17.9407 2.12494 18.0112Z" fill="#008037"/>
</g>
<path fill-rule="evenodd" clip-rule="evenodd" d="M14.3795 18.5399L14.3911 18.9263C10.2056 19.9708 6.15677 21.895 2.16204 24.1703C4.29729 18.0478 3.07052 12.7623 0.17627 7.88818L14.4568 10.2818C14.3627 10.5259 14.2931 10.7814 14.2403 11.0444L2.64527 9.18945C4.83206 12.8717 5.45447 17.6426 3.84111 22.2675C6.765 20.6013 10.9053 19.3038 14.3795 18.5412V18.5399Z" fill="#008037"/>
<path fill-rule="evenodd" clip-rule="evenodd" d="M5.33985 20.0248C5.91329 16.9327 5.62335 13.7211 4.42106 10.7989L4.21875 10.3069L14.4156 11.9379L14.3886 12.2172C14.3628 12.4752 14.3409 12.7332 14.3138 12.9925C14.2623 13.4732 14.2378 13.9716 14.2533 14.4561C14.2545 14.5203 14.2597 14.6209 14.2687 14.7405L14.3074 16.0631C13.8332 15.415 13.9272 13.7236 14.0084 12.961C14.0355 12.7081 14.0574 12.4488 14.0832 12.1883L4.70714 10.6882L5.73159 10.8518C5.69422 11.0104 5.61433 11.1626 5.4932 11.2923C5.36562 11.4282 5.20841 11.5226 5.04089 11.5729C5.86432 13.9703 6.11174 16.5263 5.80247 19.0382L5.81535 18.9299C6.08983 18.8997 6.3759 18.9803 6.59497 19.1728C6.72126 19.2861 6.81146 19.4233 6.863 19.573L6.76636 19.6108C9.19412 18.6493 11.8783 17.8879 14.3447 17.3631L14.3538 17.6664C12.819 17.9936 11.2946 18.3938 9.8088 18.8582C8.43899 19.2874 7.08078 19.7769 5.76767 20.3508L5.23676 20.5836L5.33985 20.0248Z" fill="#008037"/>
<path fill-rule="evenodd" clip-rule="evenodd" d="M5.80239 19.0408L5.78467 19.1825C5.791 19.1357 5.79606 19.0876 5.80239 19.0408Z" fill="#008037"/>
<path fill-rule="evenodd" clip-rule="evenodd" d="M5.71859 19.6348C5.71099 19.6816 5.7034 19.7284 5.6958 19.7753L5.71859 19.6348Z" fill="#008037"/>
<path fill-rule="evenodd" clip-rule="evenodd" d="M24.6835 7.03867V6.95435C24.6835 6.66364 24.7853 6.39433 24.9579 6.18039C25.195 5.88465 25.5649 5.69336 25.9785 5.69336H27.7852C28.4965 5.69336 29.0802 6.26093 29.0802 6.95435V18.6456C29.0802 18.7513 29.0674 18.8532 29.0416 18.9514H24.7221C24.6963 18.8532 24.6835 18.7513 24.6835 18.6456V18.5625C24.6835 15.7473 24.6835 9.86268 24.6835 7.03867ZM34.1316 11.0998L33.7219 17.1543C33.6652 17.2361 33.5195 17.372 33.468 17.4198C33.2129 17.6564 32.9551 17.8804 32.7116 18.1271C32.2619 18.5801 31.7799 18.9514 31.1034 18.9514H30.0763C30.0519 18.9275 30.03 18.901 30.0081 18.8746C29.8367 18.6607 29.7349 18.3914 29.7349 18.1007V7.71069C29.7349 7.41999 29.8367 7.15067 30.0081 6.93673C30.2464 6.64099 30.6163 6.4497 31.0299 6.4497H32.8366C33.5479 6.4497 34.1316 7.01727 34.1316 7.71195V11.0998ZM24.0108 18.3561V18.3675C24.0108 18.5776 23.9567 18.7765 23.8626 18.9514H23.2634C22.8162 18.9514 22.3858 19.1024 22.0753 19.4246C22.0134 19.49 21.9593 19.558 21.9129 19.6284H20.9091C20.4954 19.6284 20.1256 19.4384 19.8885 19.1414C19.7171 18.9275 19.614 18.6582 19.614 18.3675V7.97749C19.614 7.68678 19.7171 7.41747 19.8885 7.20353C20.1256 6.90779 20.4954 6.7165 20.9091 6.7165H22.7157C23.4283 6.7165 24.0095 7.28407 24.0095 7.97749V18.3561H24.0108ZM34.4796 16.3627L34.803 16.5225C34.8236 16.4583 34.8443 16.3929 34.8623 16.3275L34.6059 16.2746L34.785 15.0501C34.8249 14.7783 34.8623 14.5065 34.9048 14.2359C34.9757 13.7765 35.0221 13.3084 35.0298 12.8428C35.0337 12.6729 35.0247 12.2953 34.9808 12.0411L34.7425 11.9568L34.4409 16.4332L34.4809 16.3627H34.4796ZM29.8869 23.8871C34.3803 23.8871 35.0105 23.2201 37.1032 20.8831L33.9641 19.2987L32.9667 18.7953C32.6626 19.0735 32.3353 19.3038 31.9629 19.446L31.9564 19.4485L31.8933 19.4711L31.8624 19.4825L31.8585 19.4837L31.8289 19.4925L31.8237 19.495L31.7928 19.5039L31.7889 19.5051L31.758 19.5139L31.7528 19.5152L31.7219 19.524L31.7181 19.5252L31.7052 19.5278L31.682 19.5341L31.6485 19.5416L31.6446 19.5429L31.6111 19.5492L31.6085 19.5504L31.5918 19.5529L31.5338 19.5643L31.5003 19.5706H31.4964L31.4616 19.5756L31.459 19.5768L31.423 19.5806L31.4204 19.5819L31.3843 19.5857L31.383 19.5869L31.3456 19.5907H31.3431L31.3057 19.5932H31.3044L31.2645 19.597L31.2258 19.5995L31.1859 19.6008H31.1459L31.1047 19.602C31.1047 19.6033 28.5854 19.602 28.3676 19.602H25.1847C24.1822 19.602 22.1449 19.1716 22.3781 20.7447C22.4761 21.4092 22.891 22.1945 23.0418 22.6236C23.2879 23.317 24.0714 23.8859 24.784 23.8859H29.8869V23.8871ZM14.7456 17.1719V10.5649L14.752 10.5511L14.7456 10.5498V9.54681C14.7456 9.25484 14.8487 8.98679 15.0201 8.77285C15.2572 8.47584 15.627 8.28456 16.0394 8.28456H17.8473C18.5586 8.28456 19.1411 8.85339 19.1411 9.54681V18.1887C19.1411 18.8834 18.5586 19.4497 17.8473 19.4497H16.0394C15.627 19.4497 15.2572 19.2597 15.0201 18.9627C14.8487 18.7488 14.7456 18.4795 14.7456 18.1887V17.187L14.752 17.1845L14.7456 17.1706V17.1719Z" fill="#100F0D"/>
<path fill-rule="evenodd" clip-rule="evenodd" d="M35.4022 23.1548C35.1883 23.3335 34.9615 23.4996 34.7205 23.6469C33.276 24.524 31.325 24.5555 29.6768 24.5555H24.811C24.2955 24.5555 23.7801 24.3516 23.3639 24.0269C22.9915 23.7387 22.6964 23.3536 22.5482 22.9346C22.4142 22.557 22.2273 22.1921 22.0907 21.8082C22.0018 21.5565 21.9245 21.2948 21.8858 21.0292C21.8588 20.8493 21.8536 20.6693 21.8755 20.4956H21.1178C20.5392 20.4956 19.9967 20.2351 19.6423 19.7934L19.5882 19.7217C19.2454 20.0929 18.7493 20.3257 18.1991 20.3257H16.4762C16.1347 20.3257 15.8061 20.2364 15.52 20.0703C15.52 23.4921 16.5084 26.1839 19.7106 26.9655C19.6397 26.9491 20.3936 28.75 20.4928 29.0671C20.7544 29.8977 20.9799 30.8755 21.1513 32.0371H29.9423C30.1124 30.8755 30.3379 29.8977 30.5982 29.0671C30.883 28.166 31.209 27.4374 31.5544 26.8321C31.441 26.8597 35.4022 25.7384 35.4022 23.1548ZM33.7308 32.4713L32.5827 30.3419C32.4345 30.8768 32.3043 31.4418 32.1768 32.0661L32.1407 32.246C32.6703 32.3127 33.2012 32.3882 33.7308 32.4713ZM30.3418 31.5463C30.3134 31.7124 30.2876 31.8773 30.2619 32.0447L30.517 32.0661C30.8727 32.1 31.2283 32.1378 31.5827 32.1793L31.5569 32.0912C31.2915 31.1914 31.517 30.162 31.9461 29.1602L31.7502 28.7978L31.325 28.01C31.1652 28.385 31.026 28.7701 30.9049 29.1577C30.6588 29.938 30.4796 30.7396 30.3418 31.5463Z" fill="#100F0D"/>
<path fill-rule="evenodd" clip-rule="evenodd" d="M31.8639 32.0042C32.2002 30.3606 32.5365 28.6554 34.1151 26.1548C32.9386 27.8122 31.3394 30.2247 31.8639 32.0042ZM17.5318 30.6702C17.2818 29.4444 17.0305 28.1746 15.854 26.3096C16.7303 27.5454 17.9235 29.345 17.5318 30.6702ZM19.2418 32.0042C19.7663 30.2247 18.1658 27.8122 16.9906 26.1548C18.5691 28.6554 18.9055 30.3606 19.2418 32.0042ZM33.5739 30.6702C33.1821 29.345 34.3754 27.5454 35.2516 26.3096C34.0751 28.1746 33.8238 29.4444 33.5739 30.6702Z" fill="#008037"/>
<path fill-rule="evenodd" clip-rule="evenodd" d="M31.9518 31.9627L31.8783 32.3251L31.7894 32.0256C31.5214 31.1158 31.792 30.0498 32.2804 29.0028C32.7636 27.9671 33.4595 26.9477 34.0484 26.1171L34.0509 26.1121L34.1811 26.1939C32.6283 28.6554 32.2829 30.343 31.9518 31.964V31.9627ZM31.8629 31.6254C32.0974 30.4941 32.3744 29.3098 33.0858 27.8387C32.8435 28.2376 32.6167 28.6504 32.4221 29.0644C32.0123 29.9466 31.7572 30.8376 31.8629 31.6254ZM17.4561 30.6854L17.4483 30.6438C17.2009 29.4382 16.9445 28.1823 15.7886 26.3499L15.9174 26.2669L15.9213 26.2719C16.3607 26.8911 16.8787 27.6524 17.2396 28.4251C17.6055 29.2104 17.8091 30.0083 17.6068 30.6916L17.5192 30.9912L17.4561 30.6854ZM16.8117 27.9318C17.1958 28.8077 17.3774 29.5502 17.5256 30.2575C17.563 29.7075 17.3813 29.0946 17.0978 28.4868C17.0102 28.3005 16.9148 28.1143 16.8117 27.9318ZM19.2434 31.6254C19.349 30.8376 19.0939 29.9466 18.6841 29.0644C18.4908 28.6504 18.2627 28.2389 18.0218 27.8412C18.7318 29.3098 19.0088 30.4941 19.2434 31.6254ZM18.8246 29.0028C19.313 30.0498 19.5849 31.1158 19.3155 32.0256L19.2279 32.3251L19.1545 31.9665C18.8233 30.3456 18.4779 28.6567 16.9239 26.1939L17.054 26.1121L17.0566 26.1158C17.6468 26.9464 18.3413 27.9658 18.8246 29.0028ZM33.4994 30.6916C33.2971 30.0083 33.5007 29.2104 33.8667 28.4251C34.2275 27.6524 34.7455 26.8923 35.1849 26.2719L35.1875 26.2681L35.3177 26.3499C34.1618 28.1823 33.9053 29.4382 33.6579 30.6438L33.587 30.9912L33.4994 30.6916ZM34.0084 28.4881C33.7249 29.0946 33.5419 29.7075 33.5806 30.2587C33.7288 29.5502 33.9105 28.809 34.2945 27.9318C34.1914 28.1156 34.0948 28.3005 34.0084 28.4868V28.4881Z" fill="#008037"/>
<mask id="mask3_804_21146" style="mask-type:luminance" maskUnits="userSpaceOnUse" x="4" y="32" width="43" height="5">
<path d="M4.62158 32.4849H46.1874V36.7272H4.62158V32.4849Z" fill="white"/>
</mask>
<g mask="url(#mask3_804_21146)">
<path fill-rule="evenodd" clip-rule="evenodd" d="M46.0063 36.7245C32.1561 33.7784 18.4555 33.7784 4.73682 36.7245C18.297 31.4427 32.0337 30.9229 46.0063 36.7245Z" fill="#008037"/>
</g>
<path fill-rule="evenodd" clip-rule="evenodd" d="M36.1303 15.2377L44.7899 17.0348C44.8375 16.8712 44.929 16.7164 45.0618 16.5867C45.2022 16.4496 45.371 16.359 45.5489 16.3137C44.8195 13.8068 44.6842 11.1627 45.1107 8.58914C44.8221 8.60676 44.5283 8.50986 44.3092 8.29718C44.1829 8.17259 44.0966 8.02409 44.0489 7.86678L44.1494 7.83154C40.8879 8.95158 37.2166 9.72177 34.1304 10.1043V10.497C34.3559 10.4794 34.5543 10.4819 34.8533 10.5863L35.7759 10.9135C36.6213 11.2143 36.3919 13.4985 36.2476 14.4335C36.2063 14.6965 36.169 14.9671 36.129 15.2377H36.1303ZM40.8493 13.5714C40.0967 13.6419 39.4292 13.1033 39.357 12.3709C39.2849 11.6372 39.8377 10.9853 40.5902 10.9161C41.5052 10.8305 42.2332 11.6334 42.0631 12.4967C41.9523 13.063 41.4678 13.5136 40.8493 13.5714Z" fill="#008037"/>
<path fill-rule="evenodd" clip-rule="evenodd" d="M40.6873 12.2952L40.7273 12.9848C40.3724 13.0012 40.366 12.6576 40.3556 12.6337C40.3518 12.6236 40.313 12.5959 40.3118 12.6815C40.3105 12.7482 40.2988 13.01 40.3363 13.0389C40.406 13.0943 40.6305 13.0993 40.7325 13.0918L40.7493 13.3699L40.9028 13.3624L40.8861 13.0679C41.3145 12.9496 41.41 12.4751 41.0409 12.1567L40.8254 12.0019L40.7931 11.4155C41.0977 11.4054 41.1145 11.6798 41.1209 11.6898C41.1261 11.6974 41.1661 11.7263 41.1609 11.6294L41.1455 11.34L40.7854 11.3123L40.7712 11.0342L40.6176 11.0417L40.6344 11.3387C40.2459 11.4545 40.1814 11.8534 40.4924 12.1442C40.5402 12.1895 40.5995 12.236 40.6705 12.2838L40.6873 12.2952ZM40.6396 11.4533L40.6641 11.8887C40.4821 11.7427 40.4653 11.5552 40.6396 11.4533ZM40.8473 12.4072C41.0809 12.5909 41.0938 12.8451 40.8783 12.9496L40.8473 12.4072Z" fill="#008037"/>
<path fill-rule="evenodd" clip-rule="evenodd" d="M10.1227 15.2263L10.1704 16.0556C9.74324 16.0758 9.7355 15.663 9.7213 15.6328C9.71743 15.6215 9.67097 15.5887 9.66839 15.6919C9.6671 15.7712 9.65419 16.0871 9.69807 16.1223C9.78325 16.189 10.0543 16.1953 10.1769 16.1865L10.1962 16.5213L10.3808 16.5112L10.3601 16.1563C10.8777 16.0154 10.9938 15.4427 10.5473 15.0602L10.2879 14.8727L10.2491 14.1667C10.617 14.1541 10.6363 14.4838 10.6441 14.4964C10.6505 14.5052 10.6996 14.5404 10.6918 14.4246L10.6737 14.076L10.2401 14.0421L10.2233 13.7061L10.0375 13.7161L10.0581 14.0748C9.58967 14.2145 9.51223 14.694 9.8865 15.0451C9.94586 15.0992 10.0181 15.1558 10.102 15.2124L10.1227 15.2263ZM10.0646 14.212L10.0956 14.7367C9.87617 14.5618 9.85423 14.334 10.0646 14.212ZM10.3163 15.3609C10.5976 15.5824 10.6118 15.8882 10.3524 16.0141L10.3163 15.3609Z" fill="#008037"/>
<path d="M62.5332 25.2056H69.9235V29.7394H56.0337V6.46973H62.5332V25.2056Z" fill="#004AAD"/>
<path d="M76.7461 6.46973H82.2418C85.8805 6.46973 87.6999 7.9708 87.6999 10.9668V25.2423C87.6999 28.2414 85.8805 29.7394 82.2418 29.7394H76.7461C73.1074 29.7394 71.2881 28.2414 71.2881 25.2423V10.9668C71.2881 7.9708 73.1074 6.46973 76.7461 6.46973ZM81.2004 24.4091V11.8001C81.2004 11.2701 80.8898 11.0036 80.2719 11.0036H78.716C78.095 11.0036 77.7875 11.2701 77.7875 11.8001V24.4091C77.7875 24.9421 78.095 25.2056 78.716 25.2056H80.2719C80.8898 25.2056 81.2004 24.9421 81.2004 24.4091Z" fill="#004AAD"/>
<path d="M102.7 29.7394L101.948 26.2594H96.2387L95.4608 29.7394H89.0742L95.1973 6.46973H103.102L109.225 29.7394H102.7ZM97.2425 21.7623H100.956L99.1371 13.393L97.2425 21.7623Z" fill="#004AAD"/>
<path d="M121.589 6.46973H127.524V29.7394H121.965L116.658 17.5225V29.7394H110.71V6.46973H116.281L121.589 18.9072V6.46973Z" fill="#004AAD"/>
<path d="M130.495 6.46973H136.995V29.7394H130.495V6.46973Z" fill="#004AAD"/>
<path d="M154.252 11.0036H146.46V16.6525H153.211V20.8188H146.46V29.7394H139.961V6.46973H154.252V11.0036Z" fill="#004AAD"/>
<path d="M167.875 29.7394H161.388V22.2034L154.813 6.46973H161.451L164.575 16.2972L167.474 6.46973H174.073L167.875 22.1299V29.7394Z" fill="#004AAD"/>
</svg>
