<svg width="96" height="96" viewBox="0 0 96 96" fill="none" xmlns="http://www.w3.org/2000/svg">
<g clip-path="url(#clip0_5133_18229)">
<rect width="96" height="96" fill="#04297F"/>
<mask id="mask0_5133_18229" style="mask-type:luminance" maskUnits="userSpaceOnUse" x="63" y="0" width="25" height="22">
<path d="M63.6973 0H87.8132V21.7532H63.6973V0Z" fill="white"/>
</mask>
<g mask="url(#mask0_5133_18229)">
<path fill-rule="evenodd" clip-rule="evenodd" d="M85.4406 5.42725C85.1894 7.78909 85.0928 10.1312 85.1363 12.4272C85.9189 11.9371 86.6967 11.4371 87.472 10.9272C87.2643 7.4733 87.3464 3.84173 87.7522 0.00292969C80.3851 8.67724 72.7184 16.1904 64.2305 20.4963C64.3512 20.7364 64.4551 20.9897 64.5493 21.2627C70.9599 18.0095 79.873 11.9799 85.4406 5.42725Z" fill="#FFFFFE"/>
</g>
<mask id="mask1_5133_18229" style="mask-type:luminance" maskUnits="userSpaceOnUse" x="89" y="21" width="7" height="16">
<path d="M89.6689 21.7529H95.9999V36.0687H89.6689V21.7529Z" fill="white"/>
</mask>
<g mask="url(#mask1_5133_18229)">
<path fill-rule="evenodd" clip-rule="evenodd" d="M91.703 25.4212C91.1281 26.4837 90.5943 27.5626 90.0967 28.6613C90.145 30.9475 90.3165 33.2205 90.6039 35.4836C91.7947 30.8784 93.5556 26.3192 96.0001 21.8159C94.0629 22.408 92.1305 22.9541 90.2054 23.4409C90.1547 24.2501 90.1208 25.0593 90.1015 25.8652C90.6474 25.7271 91.1812 25.5824 91.703 25.4245V25.4212Z" fill="#FFFFFE"/>
</g>
<path fill-rule="evenodd" clip-rule="evenodd" d="M63.5496 23.3058C63.5013 22.9867 63.4361 22.6775 63.3516 22.3815C73.1946 20.6973 82.7549 15.3157 92.2139 8.59204C87.4506 25.0492 89.3564 39.6446 94.5617 53.3222L66.8129 44.9932C67.0182 44.3386 67.1801 43.6479 67.3081 42.9373L89.8491 49.4603C85.9144 39.1281 85.1487 26.0163 88.7429 13.5822C81.5979 18.6611 70.9844 22.0361 63.5496 23.3091V23.3058Z" fill="#FFFFFE"/>
<path fill-rule="evenodd" clip-rule="evenodd" d="M84.5977 22.1503L84.6459 21.7632C84.629 21.8922 84.6145 22.0213 84.5977 22.1503Z" fill="#FFFFFE"/>
<path fill-rule="evenodd" clip-rule="evenodd" d="M84.7617 20.9264C84.7786 20.8007 84.7979 20.6716 84.8148 20.5459C84.7979 20.6749 84.7786 20.8007 84.7617 20.9264Z" fill="#FFFFFE"/>
<path fill-rule="evenodd" clip-rule="evenodd" d="M84.8174 20.539C84.8367 20.4132 84.856 20.2842 84.8753 20.1584L84.8174 20.539Z" fill="#FFFFFE"/>
<path fill-rule="evenodd" clip-rule="evenodd" d="M84.8818 20.1103C84.9011 19.9978 84.918 19.882 84.9373 19.7695C84.918 19.8853 84.8987 19.9978 84.8818 20.1103Z" fill="#FFFFFE"/>
<path fill-rule="evenodd" clip-rule="evenodd" d="M84.9434 19.7223C84.9651 19.5933 84.9844 19.4609 85.0061 19.3352C84.9844 19.4642 84.9651 19.5933 84.9434 19.7223Z" fill="#FFFFFE"/>
<path fill-rule="evenodd" clip-rule="evenodd" d="M83.5572 11.6021C83.5596 12.1909 83.5716 12.783 83.591 13.3718C83.0113 13.7205 82.4267 14.0626 81.8398 14.4014C81.7697 14.3587 81.7021 14.3093 81.6369 14.2534C81.376 14.0363 81.1707 13.7369 81.0282 13.3948C79.3422 14.8554 77.5644 16.2501 75.7576 17.5527C74.6973 18.0396 73.632 18.4968 72.5596 18.9178C73.7504 18.135 74.9267 17.3159 76.0837 16.4672C78.3518 14.8027 80.5765 12.9902 82.6948 10.9935L83.5523 10.1843L83.5596 11.6021H83.5572Z" fill="#FFFFFE"/>
<path fill-rule="evenodd" clip-rule="evenodd" d="M10.714 18.4964C10.8275 19.7629 10.8952 21.0326 10.9242 22.2991L11.5039 22.4372C11.4942 21.9109 11.4749 21.3846 11.4507 20.8583C11.7816 20.8418 12.1126 20.707 12.4121 20.4438C12.6947 20.1971 12.9145 19.8649 13.0618 19.4899L21.8106 24.8451L24.0787 25.3747L10.5908 17.1182L10.714 18.4964Z" fill="#FFFFFE"/>
<path fill-rule="evenodd" clip-rule="evenodd" d="M6.05473 21.1647C5.87599 16.9015 5.31802 12.6318 4.46777 8.36206L28.8567 23.5923L29.1465 23.7699C28.8543 24.3258 28.603 24.9278 28.376 25.5561L27.7359 25.1646L8.29628 13.2666C8.84942 16.0528 9.17792 18.9574 9.26729 21.9146L6.05473 21.1647Z" fill="#FFFFFE"/>
<mask id="mask2_5133_18229" style="mask-type:luminance" maskUnits="userSpaceOnUse" x="0" y="36" width="6" height="16">
<path d="M0 36.9111H5.57246V51.2269H0V36.9111Z" fill="white"/>
</mask>
<g mask="url(#mask2_5133_18229)">
<path fill-rule="evenodd" clip-rule="evenodd" d="M3.98309 47.0787C4.49759 46.0327 4.97102 44.9669 5.40821 43.888C5.28744 41.7103 5.05073 39.5492 4.70048 37.4077C3.71498 41.8748 2.18358 46.3353 0 50.786C1.83092 50.1018 3.65701 49.4603 5.47826 48.8814C5.49759 48.1018 5.50483 47.3287 5.49759 46.559C4.98068 46.7202 4.47585 46.8945 3.98309 47.0787Z" fill="#FFFFFE"/>
</g>
<path fill-rule="evenodd" clip-rule="evenodd" d="M26.9542 48.4604L26.976 49.4703C19.1306 52.2005 11.5412 57.2301 4.05328 63.1775C8.05569 47.1742 5.75618 33.3585 0.331055 20.6184L27.0992 26.875C26.9228 27.5131 26.7924 28.1809 26.6934 28.8684L4.95907 24.0197C9.05811 33.6447 10.2248 46.115 7.20062 58.2038C12.6813 53.8486 20.4422 50.4571 26.9542 48.4637V48.4604Z" fill="#FFFFFE"/>
<path fill-rule="evenodd" clip-rule="evenodd" d="M10.0087 52.3419C11.0836 44.2597 10.5401 35.865 8.28645 28.2269L7.90723 26.9407L27.0208 31.2038L26.97 31.9341C26.9217 32.6084 26.8807 33.2828 26.8299 33.9604C26.7333 35.217 26.6874 36.5196 26.7164 37.786C26.7188 37.9538 26.7285 38.217 26.7454 38.5295L26.8179 41.9867C25.929 40.2926 26.1053 35.8716 26.2575 33.8782C26.3082 33.217 26.3493 32.5393 26.3976 31.8584L8.82269 27.9374L10.743 28.365C10.6729 28.7795 10.5232 29.1775 10.2961 29.5163C10.057 29.8716 9.7623 30.1183 9.44829 30.2499C10.9918 36.5163 11.4555 43.1972 10.8758 49.763L10.9 49.4801C11.4145 49.4011 11.9507 49.6117 12.3613 50.1149C12.598 50.411 12.7671 50.7695 12.8637 51.161L12.6826 51.2597C17.2333 48.7465 22.2647 46.7564 26.8879 45.3847L26.9048 46.1775C24.028 47.0327 21.1705 48.0788 18.3855 49.2926C15.8179 50.4143 13.272 51.6939 10.8106 53.1939L9.81544 53.8024L10.0087 52.3419Z" fill="#FFFFFE"/>
<path fill-rule="evenodd" clip-rule="evenodd" d="M10.8758 49.7695L10.8428 50.1401C10.8546 50.0177 10.864 49.892 10.8758 49.7695Z" fill="#FFFFFE"/>
<path fill-rule="evenodd" clip-rule="evenodd" d="M10.7195 51.3223C10.7049 51.4447 10.6904 51.5671 10.6758 51.6895L10.7195 51.3223Z" fill="#FFFFFE"/>
<path fill-rule="evenodd" clip-rule="evenodd" d="M46.2696 18.3985V18.1781C46.2696 17.4183 46.4604 16.7143 46.7841 16.1551C47.2286 15.3821 47.9218 14.8821 48.6972 14.8821H52.0836C53.417 14.8821 54.5112 16.3656 54.5112 18.1781V48.7372C54.5112 49.0135 54.487 49.28 54.4387 49.5366H46.3421C46.2938 49.28 46.2696 49.0135 46.2696 48.7372V48.5201C46.2696 41.1616 46.2696 25.7801 46.2696 18.3985ZM63.9798 29.0136L63.2117 44.8392C63.1054 45.053 62.8324 45.4083 62.7358 45.5333C62.2576 46.1517 61.7745 46.7372 61.3179 47.382C60.4749 48.5662 59.5716 49.5366 58.3034 49.5366H56.3783C56.3324 49.4741 56.2914 49.405 56.2503 49.3359C55.929 48.7767 55.7382 48.0728 55.7382 47.3129V20.1551C55.7382 19.3952 55.929 18.6913 56.2503 18.1321C56.6972 17.359 57.3904 16.859 58.1658 16.859H61.5522C62.8856 16.859 63.9798 18.3426 63.9798 20.1584V29.0136ZM45.0088 47.9807V48.0103C45.0088 48.5596 44.9073 49.0793 44.731 49.5366H43.6078C42.7696 49.5366 41.9629 49.9313 41.3807 50.7734C41.2648 50.9445 41.1633 51.1221 41.0764 51.3063H39.1947C38.4194 51.3063 37.7261 50.8096 37.2817 50.0333C36.9604 49.4741 36.7672 48.7701 36.7672 48.0103V20.8525C36.7672 20.0926 36.9604 19.3886 37.2817 18.8294C37.7261 18.0564 38.4194 17.5564 39.1947 17.5564H42.5812C43.917 17.5564 45.0063 19.04 45.0063 20.8525V47.9807H45.0088ZM64.632 42.7701L65.2382 43.1879C65.2769 43.0201 65.3155 42.8491 65.3493 42.678L64.8687 42.5399L65.2044 39.3392C65.2793 38.6287 65.3493 37.9182 65.4291 37.211C65.5619 36.0103 65.6489 34.7866 65.6634 33.5695C65.6706 33.1254 65.6537 32.1386 65.5716 31.4741L65.1247 31.2537L64.5595 42.9544L64.6344 42.7701H64.632ZM56.0233 62.4379C64.446 62.4379 65.6271 60.6944 69.5498 54.5859L63.6658 50.4445L61.7962 49.1287C61.2262 49.8557 60.6126 50.4576 59.9146 50.8293L59.9025 50.8359L59.7841 50.8951L59.7262 50.9247L59.7189 50.928L59.6633 50.951L59.6537 50.9576L59.5957 50.9806L59.5885 50.9839L59.5305 51.007L59.5208 51.0103L59.4629 51.0333L59.4556 51.0366L59.4315 51.0431L59.388 51.0596L59.3252 51.0793L59.3179 51.0826L59.2551 51.0991L59.2503 51.1024L59.2189 51.1089L59.1102 51.1385L59.0474 51.155H59.0402L58.9749 51.1681L58.9701 51.1714L58.9025 51.1813L58.8976 51.1846L58.83 51.1945L58.8276 51.1978L58.7576 51.2076H58.7527L58.6827 51.2142H58.6803L58.6054 51.2241L58.5329 51.2306L58.458 51.2339H58.3832L58.3059 51.2372C58.3059 51.2405 53.5836 51.2372 53.1754 51.2372H47.2092C45.33 51.2372 41.5112 50.1122 41.9484 54.2241C42.1319 55.9609 42.9097 58.0135 43.1923 59.1352C43.6537 60.9477 45.1223 62.4346 46.458 62.4346H56.0233V62.4379ZM27.6416 44.8853V27.6156L27.6537 27.5794L27.6416 27.5761V24.9544C27.6416 24.1913 27.8348 23.4906 28.1561 22.9314C28.6005 22.1551 29.2938 21.6551 30.0667 21.6551H33.4556C34.7889 21.6551 35.8807 23.1419 35.8807 24.9544V47.5432C35.8807 49.3589 34.7889 50.8392 33.4556 50.8392H30.0667C29.2938 50.8392 28.6005 50.3425 28.1561 49.5662C27.8348 49.007 27.6416 48.303 27.6416 47.5432V44.9247L27.6537 44.9182L27.6416 44.882V44.8853Z" fill="#FFFFFE"/>
<path fill-rule="evenodd" clip-rule="evenodd" d="M66.3599 60.523C65.959 60.9901 65.5338 61.4243 65.0821 61.8092C62.3744 64.1019 58.7174 64.1841 55.628 64.1841H46.5073C45.5411 64.1841 44.5749 63.6513 43.7947 62.8026C43.0966 62.0493 42.5435 61.0427 42.2657 59.9473C42.0145 58.9605 41.6643 58.0065 41.4082 57.0032C41.2416 56.3454 41.0966 55.6611 41.0242 54.9671C40.9734 54.4967 40.9638 54.0263 41.0048 53.5723H39.5846C38.5 53.5723 37.4831 52.8914 36.8189 51.7368L36.7174 51.5493C36.0749 52.5197 35.1449 53.1283 34.1135 53.1283H30.8841C30.244 53.1283 29.628 52.8947 29.0918 52.4605C29.0918 61.4045 30.9445 68.4407 36.9469 70.4835C36.814 70.4407 38.2271 75.1479 38.4131 75.9769C38.9034 78.1479 39.3261 80.7038 39.6474 83.74H56.1256C56.4445 80.7038 56.8672 78.1479 57.3551 75.9769C57.8889 73.6216 58.5 71.717 59.1474 70.1348C58.9348 70.2071 66.3599 67.2762 66.3599 60.523ZM63.2271 84.8749L61.0749 79.3091C60.7971 80.7071 60.5532 82.1841 60.314 83.8157L60.2464 84.2861C61.2391 84.4604 62.2343 84.6578 63.2271 84.8749ZM56.8744 82.4571C56.8213 82.8913 56.773 83.3222 56.7247 83.7597L57.2029 83.8157C57.8696 83.9045 58.5362 84.0032 59.2005 84.1117L59.1522 83.8814C58.6546 81.5295 59.0773 78.8387 59.8817 76.2203L59.5145 75.2729L58.7174 73.2137C58.4179 74.194 58.157 75.2006 57.93 76.2137C57.4686 78.2532 57.1329 80.3486 56.8744 82.4571Z" fill="#FFFFFE"/>
<path fill-rule="evenodd" clip-rule="evenodd" d="M59.7255 83.6544C60.3559 79.3584 60.9864 74.9012 63.9453 68.365C61.74 72.6972 58.7424 79.0031 59.7255 83.6544ZM32.8607 80.1676C32.3921 76.9636 31.9211 73.6446 29.7158 68.7696C31.3583 71.9998 33.595 76.7038 32.8607 80.1676ZM36.0661 83.6544C37.0492 79.0031 34.0492 72.6972 31.8463 68.365C34.8052 74.9012 35.4356 79.3584 36.0661 83.6544ZM62.9308 80.1676C62.1965 76.7038 64.4332 71.9998 66.0757 68.7696C63.8704 73.6446 63.3994 76.9636 62.9308 80.1676Z" fill="#FFFFFE"/>
<path fill-rule="evenodd" clip-rule="evenodd" d="M59.8899 83.5456L59.7522 84.493L59.5855 83.7101C59.0831 81.3318 59.5904 78.5457 60.5058 75.8088C61.4116 73.1016 62.716 70.4371 63.8198 68.2661L63.8247 68.2529L64.0686 68.4667C61.158 74.9009 60.5107 79.3121 59.8899 83.5489V83.5456ZM59.7232 82.6641C60.1628 79.7068 60.6822 76.6115 62.0155 72.7661C61.5614 73.8088 61.1363 74.8878 60.7715 75.97C60.0034 78.2759 59.5252 80.6049 59.7232 82.6641ZM32.7184 80.2068L32.7039 80.0983C32.2401 76.947 31.7594 73.6641 29.5928 68.8746L29.8343 68.6575L29.8416 68.6707C30.6652 70.2891 31.6363 72.2792 32.3126 74.299C32.9986 76.3516 33.3802 78.4371 33.001 80.2233L32.8367 81.0062L32.7184 80.2068ZM31.5106 73.0095C32.2305 75.299 32.571 77.2397 32.8488 79.0884C32.9189 77.6509 32.5783 76.049 32.0469 74.4601C31.8826 73.9733 31.7039 73.4865 31.5106 73.0095ZM36.0686 82.6641C36.2667 80.6049 35.7884 78.2759 35.0203 75.97C34.658 74.8878 34.2305 73.8121 33.7788 72.7727C35.1097 76.6115 35.629 79.7068 36.0686 82.6641ZM35.2836 75.8088C36.1991 78.5457 36.7087 81.3318 36.2039 83.7101L36.0396 84.493L35.902 83.5555C35.2812 79.3187 34.6338 74.9042 31.7208 68.4667L31.9648 68.2529L31.9696 68.2628C33.0759 70.4338 34.3778 73.0983 35.2836 75.8088ZM62.7909 80.2233C62.4116 78.4371 62.7933 76.3516 63.4793 74.299C64.1556 72.2792 65.1266 70.2924 65.9503 68.6707L65.9551 68.6608L66.1991 68.8746C64.0324 73.6641 63.5517 76.947 63.088 80.0983L62.9551 81.0062L62.7909 80.2233ZM63.745 74.4634C63.2136 76.049 62.8706 77.6509 62.943 79.0917C63.2208 77.2397 63.5614 75.3022 64.2812 73.0095C64.088 73.4898 63.9068 73.9733 63.745 74.4601V74.4634Z" fill="#FFFFFE"/>
<mask id="mask3_5133_18229" style="mask-type:luminance" maskUnits="userSpaceOnUse" x="8" y="84" width="79" height="12">
<path d="M8.66309 84.9111H86.5761V95.9999H8.66309V84.9111Z" fill="white"/>
</mask>
<g mask="url(#mask3_5133_18229)">
<path fill-rule="evenodd" clip-rule="evenodd" d="M86.2374 95.9934C60.276 88.2927 34.5949 88.2927 8.87988 95.9934C34.2978 82.1875 60.0466 80.8289 86.2374 95.9934Z" fill="#FFFFFE"/>
</g>
<path fill-rule="evenodd" clip-rule="evenodd" d="M67.7244 39.8289L83.9563 44.5263C84.0456 44.0987 84.2171 43.6941 84.4659 43.3553C84.7292 42.9967 85.0456 42.7599 85.379 42.6414C84.0118 36.0888 83.7582 29.1777 84.5577 22.4507C84.0167 22.4968 83.4659 22.2435 83.0553 21.6876C82.8186 21.3619 82.6568 20.9737 82.5674 20.5626L82.7558 20.4705C76.6423 23.3981 69.7606 25.4112 63.9756 26.4112V27.4375C64.3983 27.3915 64.7703 27.3981 65.3307 27.6711L67.0601 28.5264C68.6447 29.3125 68.2147 35.2829 67.9442 37.727C67.8669 38.4145 67.7968 39.1217 67.722 39.8289H67.7244ZM76.5698 35.4737C75.1592 35.6579 73.908 34.25 73.7727 32.3356C73.6374 30.4178 74.6737 28.7139 76.0843 28.5329C77.7993 28.3092 79.164 30.4079 78.8452 32.6645C78.6374 34.1448 77.7292 35.3224 76.5698 35.4737Z" fill="#FFFFFE"/>
<path fill-rule="evenodd" clip-rule="evenodd" d="M76.2667 32.1381L76.3416 33.9407C75.6773 33.9835 75.6652 33.0854 75.6459 33.0229C75.6387 32.9966 75.5662 32.9243 75.5638 33.1479C75.5614 33.3223 75.5396 34.0065 75.6097 34.0822C75.7401 34.2269 76.1604 34.24 76.3512 34.2203L76.3826 34.9473L76.6701 34.9275L76.6387 34.1578C77.4406 33.8486 77.6193 32.6085 76.9285 31.7762L76.5251 31.3716L76.4648 29.8387C77.0348 29.8124 77.0662 30.5295 77.0783 30.5559C77.0879 30.5756 77.1628 30.6512 77.1532 30.398L77.1242 29.6414L76.4503 29.569L76.4237 28.842L76.1363 28.8618L76.1677 29.6381C75.4406 29.9407 75.3198 30.9835 75.902 31.7433C75.9913 31.8618 76.1024 31.9835 76.2353 32.1085L76.2667 32.1381ZM76.1773 29.9374L76.2232 31.0756C75.8826 30.694 75.8512 30.2039 76.1773 29.9374ZM76.5662 32.4308C77.0034 32.9111 77.0276 33.5756 76.6242 33.8486L76.5662 32.4308Z" fill="#FFFFFE"/>
<path fill-rule="evenodd" clip-rule="evenodd" d="M18.9736 39.7994L19.063 41.9671C18.2635 42.0197 18.249 40.9408 18.2224 40.8619C18.2152 40.8322 18.1282 40.7467 18.1234 41.0165C18.121 41.2237 18.0968 42.0493 18.179 42.1415C18.3384 42.3158 18.8456 42.3322 19.0751 42.3092L19.1113 43.1842L19.4567 43.1579L19.4181 42.2303C20.3867 41.8618 20.6041 40.3651 19.7683 39.3651L19.2828 38.875L19.2104 37.0296C19.8988 36.9967 19.935 37.8586 19.9495 37.8915C19.9616 37.9145 20.0534 38.0066 20.0389 37.704L20.005 36.7928L19.1935 36.704L19.1621 35.8257L18.8142 35.852L18.8529 36.7895C17.9761 37.1546 17.8311 38.4079 18.5316 39.3257C18.6427 39.4671 18.778 39.6151 18.935 39.7632L18.9736 39.7994ZM18.865 37.148L18.9229 38.5198C18.5123 38.0625 18.4712 37.4671 18.865 37.148ZM19.336 40.1513C19.8625 40.7303 19.8891 41.5296 19.4036 41.8586L19.336 40.1513Z" fill="#FFFFFE"/>
</g>
<defs>
<clipPath id="clip0_5133_18229">
<rect width="96" height="96" fill="white"/>
</clipPath>
</defs>
</svg>
