<svg width="19" height="20" viewBox="0 0 19 20" fill="none" xmlns="http://www.w3.org/2000/svg">
<path d="M12.369 16.6852C12.369 18.2398 11.0452 19.5 9.41226 19.5C7.77928 19.5 6.45548 18.2398 6.45548 16.6852H12.369Z" stroke="#031B54"/>
<path d="M16.5943 16.6852H2.61036C1.75365 16.6852 1.33765 16.0021 1.42115 15.2236C1.44102 15.0383 1.51943 14.8651 1.61461 14.7036L2.91449 12.4976C3.20131 12.0108 3.37997 11.4705 3.43882 10.9119L3.75254 7.93389C3.78039 7.66949 3.82004 7.40747 3.89891 7.15308C4.18067 6.24427 5.09494 3.96741 7.38472 3.02724V2.61111C7.38472 1.44518 8.37757 0.5 9.60231 0.5C10.827 0.5 11.8199 1.44518 11.8199 2.61111V3.02725C14.033 3.93595 14.9612 6.09334 15.2753 7.05732C15.3785 7.37422 15.4235 7.7033 15.4499 8.03486L15.6702 10.8057C15.7201 11.4326 15.9205 12.0391 16.2554 12.5762L17.5705 14.6855C17.6785 14.8589 17.7671 15.0467 17.786 15.2487C17.858 16.0167 17.4417 16.6852 16.5943 16.6852Z" stroke="#031B54"/>
</svg>
