<svg width="32" height="33" viewBox="0 0 32 33" fill="none" xmlns="http://www.w3.org/2000/svg">
<path fill-rule="evenodd" clip-rule="evenodd" d="M13.1205 9.13853C11.5612 9.13853 10.2897 10.4036 10.2897 11.9734C10.2897 13.5432 11.5612 14.8083 13.1205 14.8083C14.6797 14.8083 15.9513 13.5432 15.9513 11.9734C15.9513 10.4036 14.6797 9.13853 13.1205 9.13853ZM9.28967 11.9734C9.28967 9.86453 11.0006 8.14746 13.1205 8.14746C15.2403 8.14746 16.9513 9.86453 16.9513 11.9734C16.9513 14.0823 15.2403 15.7993 13.1205 15.7993C11.0006 15.7993 9.28967 14.0823 9.28967 11.9734ZM21.2761 10.2213C20.3906 10.2213 19.6652 10.9403 19.6652 11.8364C19.6652 12.7325 20.3906 13.4515 21.2761 13.4515C22.1616 13.4515 22.887 12.7325 22.887 11.8364C22.887 10.9403 22.1616 10.2213 21.2761 10.2213ZM18.6652 11.8364C18.6652 10.4012 19.83 9.23024 21.2761 9.23024C22.7222 9.23024 23.887 10.4012 23.887 11.8364C23.887 13.2716 22.7222 14.4426 21.2761 14.4426C19.83 14.4426 18.6652 13.2716 18.6652 11.8364ZM20.2582 17.3946C20.2371 17.3946 20.2186 17.3948 20.2012 17.3955C20.0221 17.4017 19.2004 17.4383 18.4232 17.5929C18.0307 17.6709 17.6843 17.7726 17.4431 17.8965C17.3236 17.9579 17.252 18.0138 17.2136 18.0559C17.2015 18.0693 17.194 18.0797 17.1896 18.087C18.3331 18.1346 19.4666 18.7422 19.8971 19.9C19.9494 20.0405 20.0003 20.1882 20.0478 20.3414C20.1017 20.3217 20.1599 20.311 20.2207 20.311C21.3509 20.311 22.3674 20.2797 23.1705 20.2005C23.5722 20.1609 23.9106 20.1102 24.178 20.0484C24.4553 19.9845 24.6159 19.9175 24.6923 19.8669C24.7394 19.8357 24.829 19.7406 24.9056 19.5911C24.9824 19.441 25.0039 19.3182 24.9995 19.2629C24.9984 19.2498 24.9979 19.2367 24.9979 19.2235C24.9979 18.8015 24.8276 18.4945 24.5509 18.2487C24.2598 17.9901 23.8475 17.7992 23.3923 17.6644C22.4961 17.399 21.5878 17.3947 21.573 17.3946C21.5728 17.3946 21.5728 17.3946 21.573 17.3946L20.2582 17.3946ZM20.2729 21.302C20.2916 21.4239 20.3062 21.547 20.3162 21.6707C20.3696 22.3339 20.1137 23.0279 19.5216 23.4202C18.5575 24.059 16.5598 24.9957 13.1616 24.9957C9.76336 24.9957 7.7657 24.059 6.80156 23.4202C6.20948 23.0279 5.95361 22.3339 6.00698 21.6707C6.05788 21.0383 6.2325 20.4204 6.42604 19.9C6.8749 18.693 8.08765 18.0839 9.27932 18.0839H16.1843C16.1836 18.0645 16.184 18.0448 16.1856 18.025C16.2274 17.5047 16.6401 17.1928 16.9827 17.0167C17.3472 16.8294 17.8008 16.7058 18.2265 16.6212C19.0856 16.4503 19.9729 16.4117 20.166 16.405C20.1985 16.4039 20.2293 16.4035 20.2582 16.4035H21.573C21.5881 16.4035 22.6272 16.4035 23.6786 16.7148C24.2046 16.8706 24.7735 17.1155 25.2183 17.5107C25.6739 17.9154 25.9927 18.4742 25.9978 19.2056C26.016 19.5026 25.9176 19.8045 25.7974 20.0395C25.6739 20.2807 25.4852 20.5337 25.248 20.6908C25.0207 20.8414 24.7199 20.941 24.4048 21.0137C24.0799 21.0887 23.695 21.1447 23.2695 21.1867C22.4309 21.2694 21.3955 21.3011 20.2729 21.302ZM9.27932 19.075C8.39537 19.075 7.63331 19.5195 7.36434 20.2427C7.18959 20.7126 7.045 21.2377 7.00382 21.7495C6.97326 22.1292 7.12415 22.4418 7.35732 22.5963C8.15679 23.126 9.96099 24.0046 13.1616 24.0046C16.3622 24.0046 18.1664 23.126 18.9659 22.5963C19.199 22.4418 19.3499 22.1292 19.3194 21.7495C19.2782 21.2377 19.1336 20.7126 18.9588 20.2427C18.6899 19.5195 17.9278 19.075 17.0439 19.075H9.27932Z" fill="white"/>
</svg>
