<svg width="40" height="40" viewBox="0 0 40 40" fill="none" xmlns="http://www.w3.org/2000/svg">
<path d="M20 24.7005C18.6405 24.7005 17.5385 25.7927 17.5385 27.1401C17.5385 28.4874 18.6405 29.5796 20 29.5796C21.3595 29.5796 22.4615 28.4874 22.4615 27.1401C22.4615 25.7927 21.3595 24.7005 20 24.7005ZM20 24.7005L23.6923 16.162M10.1538 19.8214C10.1538 14.432 14.5621 10.0631 20 10.0631C25.4379 10.0631 29.8462 14.432 29.8462 19.8214M36 19.8214C36 28.579 28.8366 35.6785 20 35.6785C11.1634 35.6785 4 28.579 4 19.8214C4 11.0637 11.1634 3.96423 20 3.96423C28.8366 3.96423 36 11.0637 36 19.8214Z" stroke="#04297F" stroke-width="2"  stroke-linecap="round" stroke-linejoin="round"/>
</svg>
