<svg width="40" height="41" viewBox="0 0 40 41" fill="none" xmlns="http://www.w3.org/2000/svg">
<path fill-rule="evenodd" clip-rule="evenodd" d="M20 5.28577C11.7157 5.28577 5 12.0015 5 20.2858C5 28.57 11.7157 35.2858 20 35.2858C28.2843 35.2858 35 28.57 35 20.2858C35 12.0015 28.2843 5.28577 20 5.28577ZM3.75 20.2858C3.75 11.3111 11.0254 4.03577 20 4.03577C28.9746 4.03577 36.25 11.3111 36.25 20.2858C36.25 29.2604 28.9746 36.5358 20 36.5358C11.0254 36.5358 3.75 29.2604 3.75 20.2858Z" fill="white"/>
<path fill-rule="evenodd" clip-rule="evenodd" d="M18.125 9.66077C18.4702 9.66077 18.75 9.94059 18.75 10.2858V13.4108H21.25V10.2858C21.25 9.94059 21.5298 9.66077 21.875 9.66077C22.2202 9.66077 22.5 9.94059 22.5 10.2858V13.4108C23.4945 13.4108 24.4484 13.8058 25.1517 14.509C25.8549 15.2123 26.25 16.1662 26.25 17.1608C26.25 18.1553 25.8549 19.1092 25.1517 19.8125C25.1226 19.8416 25.0931 19.8701 25.0631 19.8982C25.561 20.0843 26.0185 20.3759 26.4017 20.759C27.1049 21.4623 27.5 22.4162 27.5 23.4108C27.5 24.4053 27.1049 25.3592 26.4017 26.0625C25.6984 26.7658 24.7445 27.1608 23.75 27.1608H22.5V30.2858C22.5 30.6309 22.2202 30.9108 21.875 30.9108C21.5298 30.9108 21.25 30.6309 21.25 30.2858V27.1608H18.75V30.2858C18.75 30.6309 18.4702 30.9108 18.125 30.9108C17.7798 30.9108 17.5 30.6309 17.5 30.2858V27.1608H13.125C12.7798 27.1608 12.5 26.8809 12.5 26.5358C12.5 26.1906 12.7798 25.9108 13.125 25.9108H15V14.6608H13.125C12.7798 14.6608 12.5 14.3809 12.5 14.0358C12.5 13.6906 12.7798 13.4108 13.125 13.4108H17.5V10.2858C17.5 9.94059 17.7798 9.66077 18.125 9.66077ZM16.25 14.6608V19.6608H22.5C23.1631 19.6608 23.799 19.3974 24.2678 18.9286C24.7366 18.4598 25 17.8238 25 17.1608C25 16.4977 24.7366 15.8618 24.2678 15.3929C23.799 14.9241 23.1631 14.6608 22.5 14.6608H16.25ZM16.25 20.9108V25.9108H23.75C24.4131 25.9108 25.049 25.6474 25.5178 25.1786C25.9866 24.7098 26.25 24.0738 26.25 23.4108C26.25 22.7477 25.9866 22.1118 25.5178 21.6429C25.049 21.1741 24.4131 20.9108 23.75 20.9108H16.25Z" fill="white"/>
</svg>
