<svg width="32" height="33" viewBox="0 0 32 33" fill="none" xmlns="http://www.w3.org/2000/svg">
<path d="M17.702 24.194C17.702 25.7345 16.4092 26.9833 14.8144 26.9833C13.2196 26.9833 11.9268 25.7345 11.9268 24.194H17.702Z" fill="#04297F"/>
<path d="M21.8284 24.194H8.17164C7.33498 24.194 6.92872 23.5171 7.01026 22.7457C7.02967 22.562 7.10624 22.3904 7.19919 22.2304L8.46866 20.0444C8.74877 19.562 8.92325 19.0266 8.98073 18.473L9.2871 15.522C9.3143 15.26 9.35303 15.0004 9.43005 14.7483C9.70522 13.8477 10.5981 11.5915 12.8343 10.6599V10.2475C12.8343 9.09213 13.8039 8.15552 15 8.15552C16.1961 8.15552 17.1657 9.09213 17.1657 10.2475V10.6599C19.3271 11.5603 20.2335 13.6982 20.5402 14.6534C20.6411 14.9674 20.685 15.2935 20.7108 15.6221L20.9259 18.3678C20.9746 18.989 21.1704 19.5901 21.4974 20.1223L22.7817 22.2125C22.8873 22.3843 22.9738 22.5703 22.9923 22.7706C23.0625 23.5316 22.656 24.194 21.8284 24.194Z" fill="#04297F"/>
<path d="M17.702 24.194C17.702 25.7345 16.4092 26.9833 14.8144 26.9833C13.2196 26.9833 11.9268 25.7345 11.9268 24.194H17.702Z" stroke="white"/>
<path d="M21.8284 24.194H8.17164C7.33498 24.194 6.92872 23.5171 7.01026 22.7457C7.02967 22.562 7.10624 22.3904 7.19919 22.2304L8.46866 20.0444C8.74877 19.562 8.92325 19.0266 8.98073 18.473L9.2871 15.522C9.3143 15.26 9.35303 15.0004 9.43005 14.7483C9.70522 13.8477 10.5981 11.5915 12.8343 10.6599V10.2475C12.8343 9.09213 13.8039 8.15552 15 8.15552C16.1961 8.15552 17.1657 9.09213 17.1657 10.2475V10.6599C19.3271 11.5603 20.2335 13.6982 20.5402 14.6534C20.6411 14.9674 20.685 15.2935 20.7108 15.6221L20.9259 18.3678C20.9746 18.989 21.1704 19.5901 21.4974 20.1223L22.7817 22.2125C22.8873 22.3843 22.9738 22.5703 22.9923 22.7706C23.0625 23.5316 22.656 24.194 21.8284 24.194Z" stroke="white"/>
</svg>
