<svg width="37" height="37" viewBox="0 0 37 37" fill="none" xmlns="http://www.w3.org/2000/svg">
<path d="M19.2879 12.6635C19.2879 14.4796 17.8156 15.9519 15.9994 15.9519C14.1833 15.9519 12.711 14.4796 12.711 12.6635C12.711 10.8473 14.1833 9.375 15.9994 9.375C17.8156 9.375 19.2879 10.8473 19.2879 12.6635Z" stroke="white"/>
<path d="M15.9994 23.625C19.2569 23.625 21.1337 22.7848 22.0043 22.2439C22.4117 21.9909 22.6125 21.5249 22.571 21.0422C22.5144 20.383 22.2841 19.7246 22.0496 19.2023C21.7416 18.5166 21.0288 18.1442 20.2772 18.1442H11.7217C10.97 18.1442 10.2572 18.5166 9.9493 19.2023C9.71478 19.7245 9.48444 20.383 9.42785 21.0422C9.38642 21.5249 9.58721 21.9909 9.99459 22.2439C10.8652 22.7848 12.742 23.625 15.9994 23.625Z" stroke="white"/>
<rect x="0.5" y="1.14282" width="31" height="30.7143" rx="15.3571" stroke="white"/>
</svg>
