<svg width="32" height="33" viewBox="0 0 32 33" fill="none" xmlns="http://www.w3.org/2000/svg">
<path d="M20.5 9.03894H21.5C22.6046 9.03894 23.5 9.92638 23.5 11.0211L23.5 23.7144C23.5 24.8091 22.6046 25.6966 21.5 25.6966L10.5 25.6966C9.39545 25.6966 8.50002 24.8091 8.50002 23.7144L8.5 11.0211C8.5 9.92638 9.39543 9.03894 10.5 9.03894H11.5M16 6.86621C16.4702 6.86621 16.8899 7.07511 17.1649 7.40205C17.5186 7.82247 17.9477 8.3147 18.5 8.3147H19.5C20.0523 8.3147 20.5 8.75842 20.5 9.30577V10.2206C20.5 10.768 20.0523 11.2117 19.5 11.2117H12.5C11.9477 11.2117 11.5 10.768 11.5 10.2206V9.30577C11.5 8.75842 11.9477 8.3147 12.5 8.3147H13.5C14.0523 8.3147 14.4815 7.82247 14.8351 7.40205C15.1102 7.07511 15.5298 6.86621 16 6.86621Z" stroke="white" stroke-linecap="round"/>
</svg>
