<svg width="20" height="21" viewBox="0 0 20 21" fill="none" xmlns="http://www.w3.org/2000/svg">
<path d="M10 1.44189C11.2108 1.44189 12.1923 2.41466 12.1923 3.61463C12.1923 3.81195 12.3221 3.98508 12.5091 4.05282C12.7033 4.12318 12.8937 4.20148 13.0799 4.28733C13.2606 4.37069 13.4762 4.33924 13.6171 4.19954C14.4733 3.35104 15.8614 3.35104 16.7175 4.19954C17.5737 5.04804 17.5737 6.42377 16.7175 7.27227C16.5766 7.41197 16.5448 7.62562 16.6289 7.80474C16.7156 7.98921 16.7946 8.1779 16.8656 8.37042C16.9339 8.55574 17.1086 8.68434 17.3077 8.68434C18.5185 8.68434 19.5 9.6571 19.5 10.8571C19.5 12.057 18.5185 13.0298 17.3077 13.0298C17.1086 13.0298 16.9339 13.1584 16.8656 13.3437C16.7946 13.5363 16.7155 13.725 16.6289 13.9095C16.5448 14.0886 16.5765 14.3022 16.7175 14.4419C17.5737 15.2904 17.5737 16.6661 16.7175 17.5146C15.8614 18.3631 14.4733 18.3631 13.6171 17.5146C13.4762 17.3749 13.2606 17.3435 13.0799 17.4268C12.8937 17.5127 12.7033 17.591 12.5091 17.6613C12.3221 17.7291 12.1923 17.9022 12.1923 18.0995C12.1923 19.2995 11.2108 20.2723 10 20.2723C8.78922 20.2723 7.80769 19.2995 7.80769 18.0995C7.80769 17.9022 7.67792 17.7291 7.49092 17.6613C7.29668 17.591 7.10629 17.5127 6.92017 17.4268C6.73943 17.3435 6.52385 17.3749 6.38288 17.5146C5.52674 18.3631 4.13864 18.3631 3.28249 17.5146C2.42634 16.6661 2.42634 15.2904 3.28249 14.4419C3.42346 14.3022 3.45521 14.0886 3.37109 13.9095C3.28446 13.725 3.20543 13.5363 3.13442 13.3437C3.06607 13.1584 2.89139 13.0298 2.69231 13.0298C1.48153 13.0298 0.5 12.057 0.5 10.8571C0.5 9.6571 1.48153 8.68434 2.69231 8.68434C2.89139 8.68434 3.06607 8.55574 3.13442 8.37042C3.20543 8.1779 3.28445 7.9892 3.37108 7.80472C3.45519 7.62561 3.42344 7.41197 3.28249 7.27227C2.42634 6.42373 2.42634 5.04804 3.28249 4.19954C4.13864 3.35104 5.52674 3.35104 6.38288 4.19954C6.52384 4.33924 6.7394 4.3707 6.92013 4.28734C7.10627 4.20149 7.29667 4.12319 7.49092 4.05282C7.67792 3.98508 7.80769 3.81195 7.80769 3.61463C7.80769 2.41466 8.78922 1.44189 10 1.44189Z" stroke="#8D8787"/>
<path d="M14.2222 10.8571C14.2222 13.1681 12.3319 15.0416 10 15.0416C7.66813 15.0416 5.77778 13.1681 5.77778 10.8571C5.77778 8.54602 7.66813 6.67255 10 6.67255C12.3319 6.67255 14.2222 8.54602 14.2222 10.8571Z" stroke="#8D8787"/>
</svg>
