<svg width="32" height="32" viewBox="0 0 32 32" fill="none" xmlns="http://www.w3.org/2000/svg">
<path d="M16 6.51318C17.2108 6.51318 18.1923 7.48595 18.1923 8.68592C18.1923 8.88324 18.3221 9.05637 18.5091 9.12411C18.7033 9.19447 18.8937 9.27277 19.0799 9.35862C19.2606 9.44198 19.4762 9.41053 19.6171 9.27083C20.4733 8.42233 21.8614 8.42233 22.7175 9.27083C23.5737 10.1193 23.5737 11.4951 22.7175 12.3436C22.5766 12.4833 22.5448 12.6969 22.6289 12.876C22.7156 13.0605 22.7946 13.2492 22.8656 13.4417C22.9339 13.627 23.1086 13.7556 23.3077 13.7556C24.5185 13.7556 25.5 14.7284 25.5 15.9284C25.5 17.1283 24.5185 18.1011 23.3077 18.1011C23.1086 18.1011 22.9339 18.2297 22.8656 18.415C22.7946 18.6075 22.7155 18.7963 22.6289 18.9807C22.5448 19.1599 22.5765 19.3735 22.7175 19.5132C23.5737 20.3617 23.5737 21.7374 22.7175 22.5859C21.8614 23.4344 20.4733 23.4344 19.6171 22.5859C19.4762 22.4462 19.2606 22.4147 19.0799 22.4981C18.8937 22.5839 18.7033 22.6622 18.5091 22.7326C18.3221 22.8004 18.1923 22.9735 18.1923 23.1708C18.1923 24.3708 17.2108 25.3435 16 25.3435C14.7892 25.3435 13.8077 24.3708 13.8077 23.1708C13.8077 22.9735 13.6779 22.8004 13.4909 22.7326C13.2967 22.6623 13.1063 22.5839 12.9202 22.4981C12.7394 22.4147 12.5239 22.4462 12.3829 22.5859C11.5267 23.4344 10.1386 23.4344 9.28249 22.5859C8.42634 21.7374 8.42634 20.3617 9.28249 19.5132C9.42346 19.3735 9.45521 19.1599 9.37109 18.9807C9.28446 18.7963 9.20543 18.6075 9.13442 18.415C9.06607 18.2297 8.89139 18.1011 8.69231 18.1011C7.48153 18.1011 6.5 17.1283 6.5 15.9284C6.5 14.7284 7.48153 13.7556 8.69231 13.7556C8.89139 13.7556 9.06607 13.627 9.13442 13.4417C9.20543 13.2492 9.28445 13.0605 9.37108 12.876C9.45519 12.6969 9.42344 12.4833 9.28249 12.3436C8.42634 11.495 8.42634 10.1193 9.28249 9.27083C10.1386 8.42233 11.5267 8.42233 12.3829 9.27083C12.5238 9.41052 12.7394 9.44198 12.9201 9.35863C13.1063 9.27278 13.2967 9.19447 13.4909 9.12411C13.6779 9.05637 13.8077 8.88324 13.8077 8.68592C13.8077 7.48595 14.7892 6.51318 16 6.51318Z" stroke="white"/>
<path d="M20.2222 15.9284C20.2222 18.2394 18.3319 20.1129 16 20.1129C13.6681 20.1129 11.7778 18.2394 11.7778 15.9284C11.7778 13.6173 13.6681 11.7438 16 11.7438C18.3319 11.7438 20.2222 13.6173 20.2222 15.9284Z" stroke="white"/>
</svg>
