<svg width="32" height="32" viewBox="0 0 32 32" fill="none" xmlns="http://www.w3.org/2000/svg">
<path d="M9.79979 7.25307C11.6214 6.00296 13.7843 5.33321 16 5.33321C18.2157 5.33321 20.3786 6.00296 22.2002 7.25308M24.9693 9.99743C26.2307 11.8027 26.9064 13.9464 26.9064 16.1423C26.9064 18.3382 26.2307 20.4818 24.9693 22.2871M7.0307 9.99743C5.76933 11.8027 5.09355 13.9464 5.09355 16.1423C5.09355 18.3382 5.76933 20.4818 7.03071 22.2871M9.79978 25.0315C11.6214 26.2816 13.7843 26.9514 16 26.9514C18.2157 26.9514 20.3786 26.2816 22.2002 25.0315M11.9672 10.3618C13.1527 9.55031 14.5593 9.11566 16 9.11566C17.4407 9.11566 18.8473 9.55031 20.0328 10.3618M21.8325 12.1455C22.6514 13.3204 23.0899 14.7144 23.0899 16.1423C23.0899 17.5701 22.6514 18.9642 21.8325 20.139M10.1675 12.1455C9.34864 13.3204 8.91007 14.7144 8.91007 16.1423C8.91007 17.5702 9.34864 18.9642 10.1675 20.139M11.9672 21.9228C13.1527 22.7343 14.5593 23.1689 16 23.1689C17.4407 23.1689 18.8473 22.7343 20.0328 21.9228M20.3709 12.0652L20.1138 11.8104C19.9332 11.6317 19.8216 11.3959 19.7983 11.144C19.775 10.8921 19.8416 10.6401 19.9865 10.4319L22.5692 6.72561C22.6151 6.66151 22.6747 6.60812 22.7436 6.56918C22.8125 6.53023 22.8892 6.50666 22.9683 6.50011C23.0474 6.49356 23.1269 6.50419 23.2014 6.53125C23.2759 6.55832 23.3436 6.60116 23.3996 6.65681L25.5748 8.81254C25.6309 8.86811 25.6742 8.93515 25.7015 9.00899C25.7288 9.08282 25.7395 9.16167 25.7329 9.24004C25.7263 9.3184 25.7025 9.39439 25.6632 9.46271C25.6239 9.53103 25.57 9.59003 25.5054 9.63559L21.7657 12.1952C21.5548 12.3393 21.2995 12.4052 21.0445 12.3815C20.7894 12.3577 20.551 12.2458 20.3709 12.0652ZM11.8862 20.4741L11.6291 20.2193C11.4488 20.0403 11.2108 19.9297 10.9567 19.9067C10.7025 19.8836 10.4483 19.9496 10.2382 20.0932L6.49849 22.6528C6.43382 22.6984 6.37995 22.7574 6.34065 22.8257C6.30135 22.894 6.27758 22.97 6.27097 23.0483C6.26436 23.1267 6.27508 23.2056 6.30239 23.2794C6.3297 23.3532 6.37293 23.4203 6.42907 23.4758L8.60423 25.6316C8.6603 25.6872 8.72794 25.7301 8.80244 25.7571C8.87694 25.7842 8.9565 25.7948 9.03557 25.7883C9.11465 25.7817 9.19132 25.7582 9.26026 25.7192C9.32919 25.6803 9.38872 25.6269 9.43469 25.5628L12.0174 21.8565C12.1627 21.6475 12.2293 21.3944 12.2053 21.1417C12.1813 20.8889 12.0684 20.6526 11.8862 20.4741ZM20.1138 20.4741L20.3709 20.2193C20.5512 20.0403 20.7892 19.9297 21.0433 19.9067C21.2975 19.8836 21.5517 19.9496 21.7619 20.0932L25.5015 22.6528C25.5662 22.6983 25.6201 22.7573 25.6593 22.8257C25.6986 22.894 25.7224 22.97 25.729 23.0483C25.7357 23.1267 25.7249 23.2056 25.6976 23.2794C25.6703 23.3532 25.6271 23.4203 25.5709 23.4759L23.3958 25.6316C23.3397 25.6872 23.2721 25.7301 23.1976 25.7571C23.1231 25.7842 23.0435 25.7948 22.9644 25.7883C22.8854 25.7817 22.8087 25.7581 22.7397 25.7192C22.6708 25.6803 22.6113 25.6269 22.5653 25.5628L19.9826 21.8565C19.8372 21.6475 19.7707 21.3944 19.7947 21.1417C19.8187 20.8889 19.9316 20.6526 20.1138 20.4741ZM11.6291 12.0652L11.8862 11.8104C12.0668 11.6317 12.1784 11.3959 12.2017 11.144C12.2249 10.8921 12.1584 10.6401 12.0135 10.4319L9.43084 6.7256C9.38487 6.6615 9.32534 6.60812 9.25641 6.56918C9.18747 6.53023 9.1108 6.50666 9.03173 6.50011C8.95266 6.49355 8.87308 6.50419 8.79858 6.53126C8.72408 6.55832 8.65643 6.60117 8.60036 6.65681L6.42522 8.81253C6.36908 8.8681 6.32584 8.93515 6.29854 9.00898C6.27123 9.08282 6.26051 9.16167 6.26712 9.24003C6.27373 9.3184 6.2975 9.3944 6.3368 9.46272C6.3761 9.53104 6.42996 9.59003 6.49463 9.63559L10.2343 12.1952C10.4452 12.3393 10.7005 12.4052 10.9555 12.3815C11.2106 12.3577 11.449 12.2458 11.6291 12.0652Z" stroke="white" stroke-linecap="round" stroke-linejoin="round"/>
</svg>
